<?xml version="1.0" standalone="no"?><svg xmlns:xlink="http://www.w3.org/1999/xlink" xmlns="http://www.w3.org/2000/svg" viewBox="0 0 1000 500.00000000000006" preserveAspectRatio="xMaxYMax slice"><g transform="scale(0.6622516556291391)"><rect x="0" y="0" width="1510" height="755" fill="#b3b3b3"/><g transform="translate(0,0) scale(9.4375) rotate(0)"><path d="M19.9981 0.00193429L3.72652 -7.68637e-07L8.4784 4.75382L0 13.2345L6.76585 20L15.2462 11.5208L20 16.2746L19.9981 0.00193429Z" fill="#6dbc82"/></g><g transform="translate(377.5,0) scale(9.4375) rotate(0)"><path d="M10 5L5 0L0 5L5 10L0 15L5 20L10 15L15 20L20 15L15 10L20 5L15 0L10 5Z" fill="#73a4cc"/></g><g transform="translate(566.25,0) scale(9.4375) rotate(0)"><path d="M19.9981 0.00193429L3.72652 -7.68637e-07L8.4784 4.75382L0 13.2345L6.76585 20L15.2462 11.5208L20 16.2746L19.9981 0.00193429Z" fill="#4f9bd9"/></g><g transform="translate(755,0) scale(9.4375) rotate(0)"><path d="M10 0L20 10L10 20L0 10L10 0Z" fill="#9bb6a2"/></g><g transform="translate(943.75,0) scale(9.4375) rotate(0)"><path d="M10 5L5 0L0 5L5 10L0 15L5 20L10 15L15 20L20 15L15 10L20 5L15 0L10 5Z" fill="#82b991"/></g><g transform="translate(0,188.75) scale(9.4375) rotate(0)"><path d="M10 0L20 10L10 20L0 10L10 0Z" fill="#a0aeba"/></g><g transform="translate(188.75,188.75) scale(9.4375) rotate(0)"><path d="M10 5L5 0L0 5L5 10L0 15L5 20L10 15L15 20L20 15L15 10L20 5L15 0L10 5Z" fill="#519cd9"/></g><g transform="translate(377.5,188.75) scale(9.4375) rotate(0)"><path d="M10 0L20 10L10 20L0 10L10 0Z" fill="#15c844"/></g><g transform="translate(566.25,188.75) scale(9.4375) rotate(0)"><path d="M19.9981 0.00193429L3.72652 -7.68637e-07L8.4784 4.75382L0 13.2345L6.76585 20L15.2462 11.5208L20 16.2746L19.9981 0.00193429Z" fill="#9eb6a4"/></g><g transform="translate(755,188.75) scale(9.4375) rotate(0)"><path d="M19.9981 0.00193429L3.72652 -7.68637e-07L8.4784 4.75382L0 13.2345L6.76585 20L15.2462 11.5208L20 16.2746L19.9981 0.00193429Z" fill="#42c264"/></g><g transform="translate(943.75,188.75) scale(9.4375) rotate(0)"><path d="M10 5L5 0L0 5L5 10L0 15L5 20L10 15L15 20L20 15L15 10L20 5L15 0L10 5Z" fill="#549cd8"/></g><g transform="translate(1132.5,188.75) scale(9.4375) rotate(0)"><path d="M10 5L5 0L0 5L5 10L0 15L5 20L10 15L15 20L20 15L15 10L20 5L15 0L10 5Z" fill="#7ea6c8"/></g><g transform="translate(188.75,377.5) scale(9.4375) rotate(0)"><path d="M10 5L5 0L0 5L5 10L0 15L5 20L10 15L15 20L20 15L15 10L20 5L15 0L10 5Z" fill="#43c265"/></g><g transform="translate(566.25,377.5) scale(9.4375) rotate(0)"><path d="M10 5L5 0L0 5L5 10L0 15L5 20L10 15L15 20L20 15L15 10L20 5L15 0L10 5Z" fill="#168eef"/></g><g transform="translate(943.75,377.5) scale(9.4375) rotate(0)"><path d="M10 0L20 10L10 20L0 10L10 0Z" fill="#a5b5a9"/></g><g transform="translate(1132.5,377.5) scale(9.4375) rotate(0)"><path d="M10 0L20 10L10 20L0 10L10 0Z" fill="#509bd9"/></g><g transform="translate(0,566.25) scale(9.4375) rotate(0)"><path d="M10 5L5 0L0 5L5 10L0 15L5 20L10 15L15 20L20 15L15 10L20 5L15 0L10 5Z" fill="#92abc0"/></g><g transform="translate(188.75,566.25) scale(9.4375) rotate(0)"><path d="M10 5L5 0L0 5L5 10L0 15L5 20L10 15L15 20L20 15L15 10L20 5L15 0L10 5Z" fill="#a1afba"/></g><g transform="translate(377.5,566.25) scale(9.4375) rotate(0)"><path d="M10 0L20 10L10 20L0 10L10 0Z" fill="#8cb898"/></g><g transform="translate(566.25,566.25) scale(9.4375) rotate(0)"><path d="M10 5L5 0L0 5L5 10L0 15L5 20L10 15L15 20L20 15L15 10L20 5L15 0L10 5Z" fill="#59bf74"/></g><g transform="translate(755,566.25) scale(9.4375) rotate(0)"><path d="M19.9981 0.00193429L3.72652 -7.68637e-07L8.4784 4.75382L0 13.2345L6.76585 20L15.2462 11.5208L20 16.2746L19.9981 0.00193429Z" fill="#6da2ce"/></g><g transform="translate(943.75,566.25) scale(9.4375) rotate(0)"><path d="M10 5L5 0L0 5L5 10L0 15L5 20L10 15L15 20L20 15L15 10L20 5L15 0L10 5Z" fill="#5fbe78"/></g></g></svg>