<?xml version="1.0" standalone="no"?><svg xmlns:xlink="http://www.w3.org/1999/xlink" xmlns="http://www.w3.org/2000/svg" viewBox="0 0 1000 600" preserveAspectRatio="xMaxYMax slice"><g transform="scale(0.6802721088435374)"><rect x="0" y="0" width="1470" height="882" fill="#303030"/><path d="M 147 0 A 147 147 0 0 1  294 147 L 147 0 A 147 147 0 0 0 294 147" fill="#206632"/><path d="M 441 0 A 147 147 0 0 1  588 147 L 441 0 A 147 147 0 0 0 588 147" fill="#1f5078"/><path d="M 735 147 A 147 147 0 0 0 882 0 L 735 0" fill="#245732"/><path d="M 1029 147 A 147 147 0 0 0 1176 0 L 1029 0" fill="#116cb6"/><path d="M 1176 147 A 147 147 0 0 1  1323 0 L 1176 147 A 147 147 0 0 0 1323 0" fill="#274157"/><path d="M 1323 0 A 147 147 0 0 1 1470 147 L 1323 147" fill="#2c3e31"/><path d="M 0 147 A 147 147 0 0 1 147 294 L 0 294" fill="#0ea335"/><path d="M 147 147 A 147 147 0 0 0 294 294 L 294 147" fill="#283f52"/><path d="M 294 294 A 147 147 0 0 1  441 147 L 441 294" fill="#235c32"/><path d="M 441 147 A 147 147 0 0 0 588 294 L 588 147" fill="#1b7733"/><path d="M 588 294 A 147 147 0 0 1  735 147 L 735 294" fill="#2d353c"/><path d="M 735 294 A 147 147 0 0 1  882 147 L 882 294" fill="#0582e8"/><path d="M 882 294 A 147 147 0 0 1  1029 147 L 882 294 A 147 147 0 0 0 1029 147" fill="#294831"/><path d="M 1029 147 A 147 147 0 0 1 1176 294 L 1029 294" fill="#03c537"/><path d="M 1176 294 A 147 147 0 0 1  1323 147 L 1176 294 A 147 147 0 0 0 1323 147" fill="#06bc36"/><path d="M 1323 294 A 147 147 0 0 1  1470 147 L 1323 294 A 147 147 0 0 0 1470 147" fill="#2a4531"/><path d="M 0 294 A 147 147 0 0 0 147 441 L 147 294" fill="#129535"/><path d="M 147 294 A 147 147 0 0 0 294 441 L 294 294" fill="#1b7733"/><path d="M 441 294 A 147 147 0 0 1  588 441 L 441 294 A 147 147 0 0 0 588 441" fill="#303031"/><path d="M 588 294 A 147 147 0 0 1  735 441 L 588 294 A 147 147 0 0 0 735 441" fill="#0f6fbe"/><path d="M 735 441 A 147 147 0 0 1  882 294 L 882 441" fill="#1368ae"/><path d="M 882 294 A 147 147 0 0 0 1029 441 L 1029 294" fill="#0b77cf"/><path d="M 1029 294 A 147 147 0 0 1  1176 441 L 1029 294 A 147 147 0 0 0 1176 441" fill="#0583ea"/><path d="M 1176 441 A 147 147 0 0 1  1323 294 L 1176 441 A 147 147 0 0 0 1323 294" fill="#1f5179"/><path d="M 0 588 A 147 147 0 0 1  147 441 L 147 588" fill="#17609c"/><path d="M 294 588 A 147 147 0 0 1  441 441 L 294 588 A 147 147 0 0 0 441 441" fill="#087ddc"/><path d="M 441 441 A 147 147 0 0 0 588 588 L 588 441" fill="#2b4031"/><path d="M 588 441 A 147 147 0 0 1 735 588 L 588 588" fill="#1b7533"/><path d="M 735 588 A 147 147 0 0 1  882 441 L 735 588 A 147 147 0 0 0 882 441" fill="#234a69"/><path d="M 1176 441 A 147 147 0 0 1  1323 588 L 1176 441 A 147 147 0 0 0 1323 588" fill="#08b636"/><path d="M 1323 441 A 147 147 0 0 1 1470 588 L 1323 588" fill="#05bf36"/><path d="M 0 588 A 147 147 0 0 0 147 735 L 147 588" fill="#0f71c1"/><path d="M 441 735 A 147 147 0 0 1  588 588 L 441 735 A 147 147 0 0 0 588 588" fill="#0fa035"/><path d="M 588 735 A 147 147 0 0 0 735 588 L 588 588" fill="#0fa035"/><path d="M 735 588 A 147 147 0 0 1 882 735 L 735 735" fill="#0f9e35"/><path d="M 1029 588 A 147 147 0 0 0 1176 735 L 1176 588" fill="#25455e"/><path d="M 1176 735 A 147 147 0 0 0 1323 588 L 1176 588" fill="#2d3b30"/><path d="M 147 882 A 147 147 0 0 1  294 735 L 294 882" fill="#224b6c"/><path d="M 294 735 A 147 147 0 0 0 441 882 L 441 735" fill="#148d34"/><path d="M 441 735 A 147 147 0 0 0 588 882 L 588 735" fill="#1d5481"/><path d="M 588 735 A 147 147 0 0 1  735 882 L 588 735 A 147 147 0 0 0 735 882" fill="#26445c"/><path d="M 735 735 A 147 147 0 0 0 882 882 L 882 735" fill="#09b136"/><path d="M 882 882 A 147 147 0 0 1  1029 735 L 882 882 A 147 147 0 0 0 1029 735" fill="#1e537f"/><path d="M 1029 882 A 147 147 0 0 1  1176 735 L 1029 882 A 147 147 0 0 0 1176 735" fill="#2f3234"/></g></svg>