<?xml version="1.0" standalone="no"?><svg xmlns:xlink="http://www.w3.org/1999/xlink" xmlns="http://www.w3.org/2000/svg" viewBox="0 0 1000 500.00000000000006" preserveAspectRatio="xMaxYMax slice"><g transform="scale(0.6622516556291391)"><rect x="0" y="0" width="1510" height="755" fill="#303030"/><g transform="translate(0,0) scale(9.4375) rotate(0)"><path d="M10 5L5 0L0 5L5 10L0 15L5 20L10 15L15 20L20 15L15 10L20 5L15 0L10 5Z" fill="#195c92"/></g><g transform="translate(188.75,0) scale(9.4375) rotate(0)"><path d="M19.9981 0.00193429L3.72652 -7.68637e-07L8.4784 4.75382L0 13.2345L6.76585 20L15.2462 11.5208L20 16.2746L19.9981 0.00193429Z" fill="#214d72"/></g><g transform="translate(377.5,0) scale(9.4375) rotate(0)"><path d="M10 5L5 0L0 5L5 10L0 15L5 20L10 15L15 20L20 15L15 10L20 5L15 0L10 5Z" fill="#1a5a8f"/></g><g transform="translate(566.25,0) scale(9.4375) rotate(0)"><path d="M19.9981 0.00193429L3.72652 -7.68637e-07L8.4784 4.75382L0 13.2345L6.76585 20L15.2462 11.5208L20 16.2746L19.9981 0.00193429Z" fill="#1e537e"/></g><g transform="translate(755,0) scale(9.4375) rotate(0)"><path d="M10 5L5 0L0 5L5 10L0 15L5 20L10 15L15 20L20 15L15 10L20 5L15 0L10 5Z" fill="#1b588a"/></g><g transform="translate(943.75,0) scale(9.4375) rotate(0)"><path d="M19.9981 0.00193429L3.72652 -7.68637e-07L8.4784 4.75382L0 13.2345L6.76585 20L15.2462 11.5208L20 16.2746L19.9981 0.00193429Z" fill="#1f6933"/></g><g transform="translate(1132.5,0) scale(9.4375) rotate(0)"><path d="M19.9981 0.00193429L3.72652 -7.68637e-07L8.4784 4.75382L0 13.2345L6.76585 20L15.2462 11.5208L20 16.2746L19.9981 0.00193429Z" fill="#097bd8"/></g><g transform="translate(0,188.75) scale(9.4375) rotate(0)"><path d="M10 0L20 10L10 20L0 10L10 0Z" fill="#04c537"/></g><g transform="translate(188.75,188.75) scale(9.4375) rotate(0)"><path d="M10 0L20 10L10 20L0 10L10 0Z" fill="#235a32"/></g><g transform="translate(377.5,188.75) scale(9.4375) rotate(0)"><path d="M19.9981 0.00193429L3.72652 -7.68637e-07L8.4784 4.75382L0 13.2345L6.76585 20L15.2462 11.5208L20 16.2746L19.9981 0.00193429Z" fill="#204f75"/></g><g transform="translate(755,188.75) scale(9.4375) rotate(0)"><path d="M19.9981 0.00193429L3.72652 -7.68637e-07L8.4784 4.75382L0 13.2345L6.76585 20L15.2462 11.5208L20 16.2746L19.9981 0.00193429Z" fill="#188034"/></g><g transform="translate(943.75,188.75) scale(9.4375) rotate(0)"><path d="M10 0L20 10L10 20L0 10L10 0Z" fill="#303131"/></g><g transform="translate(1132.5,188.75) scale(9.4375) rotate(0)"><path d="M10 5L5 0L0 5L5 10L0 15L5 20L10 15L15 20L20 15L15 10L20 5L15 0L10 5Z" fill="#1c5787"/></g><g transform="translate(0,377.5) scale(9.4375) rotate(0)"><path d="M10 5L5 0L0 5L5 10L0 15L5 20L10 15L15 20L20 15L15 10L20 5L15 0L10 5Z" fill="#25455f"/></g><g transform="translate(188.75,377.5) scale(9.4375) rotate(0)"><path d="M10 5L5 0L0 5L5 10L0 15L5 20L10 15L15 20L20 15L15 10L20 5L15 0L10 5Z" fill="#2c3d31"/></g><g transform="translate(377.5,377.5) scale(9.4375) rotate(0)"><path d="M10 0L20 10L10 20L0 10L10 0Z" fill="#2f3230"/></g><g transform="translate(1132.5,377.5) scale(9.4375) rotate(0)"><path d="M10 0L20 10L10 20L0 10L10 0Z" fill="#25455e"/></g><g transform="translate(0,566.25) scale(9.4375) rotate(0)"><path d="M10 0L20 10L10 20L0 10L10 0Z" fill="#2e353a"/></g><g transform="translate(188.75,566.25) scale(9.4375) rotate(0)"><path d="M19.9981 0.00193429L3.72652 -7.68637e-07L8.4784 4.75382L0 13.2345L6.76585 20L15.2462 11.5208L20 16.2746L19.9981 0.00193429Z" fill="#224b6c"/></g><g transform="translate(566.25,566.25) scale(9.4375) rotate(0)"><path d="M10 5L5 0L0 5L5 10L0 15L5 20L10 15L15 20L20 15L15 10L20 5L15 0L10 5Z" fill="#1c7433"/></g><g transform="translate(943.75,566.25) scale(9.4375) rotate(0)"><path d="M19.9981 0.00193429L3.72652 -7.68637e-07L8.4784 4.75382L0 13.2345L6.76585 20L15.2462 11.5208L20 16.2746L19.9981 0.00193429Z" fill="#0c76cd"/></g><g transform="translate(1132.5,566.25) scale(9.4375) rotate(0)"><path d="M10 0L20 10L10 20L0 10L10 0Z" fill="#188034"/></g></g></svg>