<?xml version="1.0" standalone="no"?><svg xmlns:xlink="http://www.w3.org/1999/xlink" xmlns="http://www.w3.org/2000/svg" viewBox="0 0 1000 600" preserveAspectRatio="xMaxYMax slice"><g transform="scale(0.6802721088435374)"><rect x="0" y="0" width="1470" height="882" fill="#303030"/><path d="M 0 0 A 147 147 0 0 0 147 147 L 147 0" fill="#0289f7"/><path d="M 147 0 A 147 147 0 0 1  294 147 L 147 0 A 147 147 0 0 0 294 147" fill="#02ca37"/><path d="M 294 147 A 147 147 0 0 1  441 0 L 441 147" fill="#02ca37"/><path d="M 441 0 A 147 147 0 0 0 588 147 L 588 0" fill="#0289f7"/><path d="M 588 147 A 147 147 0 0 0 735 0 L 588 0" fill="#02ca37"/><path d="M 735 147 A 147 147 0 0 1  882 0 L 882 147" fill="#02ca37"/><path d="M 882 147 A 147 147 0 0 1  1029 0 L 1029 147" fill="#02ca37"/><path d="M 1029 0 A 147 147 0 0 1 1176 147 L 1029 147" fill="#02ca37"/><path d="M 1176 0 A 147 147 0 0 1 1323 147 L 1176 147" fill="#0289f7"/><path d="M 1323 0 A 147 147 0 0 1 1470 147 L 1323 147" fill="#02ca37"/><path d="M 0 147 A 147 147 0 0 0 147 294 L 147 147" fill="#0289f7"/><path d="M 147 147 A 147 147 0 0 0 294 294 L 294 147" fill="#0289f7"/><path d="M 294 147 A 147 147 0 0 1  441 294 L 294 147 A 147 147 0 0 0 441 294" fill="#0289f7"/><path d="M 441 147 A 147 147 0 0 1 588 294 L 441 294" fill="#02ca37"/><path d="M 588 147 A 147 147 0 0 0 735 294 L 735 147" fill="#0289f7"/><path d="M 735 294 A 147 147 0 0 1  882 147 L 882 294" fill="#02ca37"/><path d="M 882 147 A 147 147 0 0 1  1029 294 L 882 147 A 147 147 0 0 0 1029 294" fill="#02ca37"/><path d="M 1029 294 A 147 147 0 0 1  1176 147 L 1029 294 A 147 147 0 0 0 1176 147" fill="#0289f7"/><path d="M 1176 294 A 147 147 0 0 1  1323 147 L 1323 294" fill="#0289f7"/><path d="M 1323 294 A 147 147 0 0 1  1470 147 L 1470 294" fill="#0289f7"/><path d="M 0 441 A 147 147 0 0 0 147 294 L 0 294" fill="#02ca37"/><path d="M 147 441 A 147 147 0 0 0 294 294 L 147 294" fill="#0289f7"/><path d="M 294 294 A 147 147 0 0 1  441 441 L 294 294 A 147 147 0 0 0 441 441" fill="#0289f7"/><path d="M 441 441 A 147 147 0 0 1  588 294 L 588 441" fill="#02ca37"/><path d="M 588 294 A 147 147 0 0 0 735 441 L 735 294" fill="#0289f7"/><path d="M 735 294 A 147 147 0 0 0 882 441 L 882 294" fill="#02ca37"/><path d="M 882 294 A 147 147 0 0 1  1029 441 L 882 294 A 147 147 0 0 0 1029 441" fill="#02ca37"/><path d="M 1029 441 A 147 147 0 0 0 1176 294 L 1029 294" fill="#02ca37"/><path d="M 1176 294 A 147 147 0 0 1 1323 441 L 1176 441" fill="#0289f7"/><path d="M 1323 441 A 147 147 0 0 0 1470 294 L 1323 294" fill="#02ca37"/><path d="M 0 441 A 147 147 0 0 1 147 588 L 0 588" fill="#0289f7"/><path d="M 147 588 A 147 147 0 0 1  294 441 L 294 588" fill="#02ca37"/><path d="M 294 588 A 147 147 0 0 1  441 441 L 441 588" fill="#02ca37"/><path d="M 441 441 A 147 147 0 0 0 588 588 L 588 441" fill="#02ca37"/><path d="M 588 588 A 147 147 0 0 1  735 441 L 735 588" fill="#02ca37"/><path d="M 735 441 A 147 147 0 0 1  882 588 L 735 441 A 147 147 0 0 0 882 588" fill="#0289f7"/><path d="M 882 588 A 147 147 0 0 0 1029 441 L 882 441" fill="#0289f7"/><path d="M 1029 588 A 147 147 0 0 0 1176 441 L 1029 441" fill="#02ca37"/><path d="M 1176 441 A 147 147 0 0 1  1323 588 L 1176 441 A 147 147 0 0 0 1323 588" fill="#02ca37"/><path d="M 1323 588 A 147 147 0 0 1  1470 441 L 1470 588" fill="#02ca37"/><path d="M 0 735 A 147 147 0 0 1  147 588 L 0 735 A 147 147 0 0 0 147 588" fill="#02ca37"/><path d="M 147 588 A 147 147 0 0 1  294 735 L 147 588 A 147 147 0 0 0 294 735" fill="#0289f7"/><path d="M 294 735 A 147 147 0 0 1  441 588 L 294 735 A 147 147 0 0 0 441 588" fill="#02ca37"/><path d="M 441 735 A 147 147 0 0 1  588 588 L 588 735" fill="#0289f7"/><path d="M 588 735 A 147 147 0 0 0 735 588 L 588 588" fill="#0289f7"/><path d="M 735 735 A 147 147 0 0 1  882 588 L 882 735" fill="#02ca37"/><path d="M 882 588 A 147 147 0 0 1 1029 735 L 882 735" fill="#0289f7"/><path d="M 1029 735 A 147 147 0 0 0 1176 588 L 1029 588" fill="#02ca37"/><path d="M 1176 588 A 147 147 0 0 1 1323 735 L 1176 735" fill="#0289f7"/><path d="M 1323 588 A 147 147 0 0 0 1470 735 L 1470 588" fill="#0289f7"/><path d="M 0 735 A 147 147 0 0 1  147 882 L 0 735 A 147 147 0 0 0 147 882" fill="#0289f7"/><path d="M 147 735 A 147 147 0 0 0 294 882 L 294 735" fill="#0289f7"/><path d="M 294 882 A 147 147 0 0 1  441 735 L 441 882" fill="#0289f7"/><path d="M 441 735 A 147 147 0 0 1 588 882 L 441 882" fill="#0289f7"/><path d="M 588 882 A 147 147 0 0 0 735 735 L 588 735" fill="#0289f7"/><path d="M 735 735 A 147 147 0 0 1 882 882 L 735 882" fill="#0289f7"/><path d="M 882 735 A 147 147 0 0 1 1029 882 L 882 882" fill="#0289f7"/><path d="M 1029 735 A 147 147 0 0 1  1176 882 L 1029 735 A 147 147 0 0 0 1176 882" fill="#02ca37"/><path d="M 1176 735 A 147 147 0 0 1 1323 882 L 1176 882" fill="#0289f7"/><path d="M 1323 882 A 147 147 0 0 1  1470 735 L 1323 882 A 147 147 0 0 0 1470 735" fill="#02ca37"/></g></svg>